<svg xmlns="http://www.w3.org/2000/svg" viewBox="0 0 92.9 95"><defs><style>.cls-1{fill:#d48845;}</style></defs><g id="Layer_2" data-name="Layer 2"><g id="Layer_1-2" data-name="Layer 1"><path class="cls-1" d="M33.56,52.41a2.15,2.15,0,0,0-2.11-2.15H23.88a2.15,2.15,0,0,0-2.15,2.15h0v7.52a2.15,2.15,0,0,0,2.14,2.16h7.58a2.15,2.15,0,0,0,2.15-2.15h0V52.41Z"/><path class="cls-1" d="M52.37,52.41a2.16,2.16,0,0,0-2.16-2.15H42.69a2.16,2.16,0,0,0-2.16,2.15v7.52a2.16,2.16,0,0,0,2.16,2.16h7.52a2.16,2.16,0,0,0,2.16-2.16Z"/><path class="cls-1" d="M71.17,52.41A2.15,2.15,0,0,0,69,50.26H61.45a2.15,2.15,0,0,0-2.15,2.15h0v7.52a2.15,2.15,0,0,0,2.14,2.16H69a2.15,2.15,0,0,0,2.15-2.15h0Z"/><path class="cls-1" d="M33.56,71.22a2.17,2.17,0,0,0-2.11-2.16H23.88a2.16,2.16,0,0,0-2.15,2.16v7.52a2.16,2.16,0,0,0,2.15,2.16h7.57a2.16,2.16,0,0,0,2.15-2.16V71.22Z"/><path class="cls-1" d="M52.37,71.22a2.16,2.16,0,0,0-2.16-2.16H42.69a2.16,2.16,0,0,0-2.16,2.16h0v7.52a2.16,2.16,0,0,0,2.16,2.16h7.52a2.16,2.16,0,0,0,2.16-2.16h0Z"/><path class="cls-1" d="M71.17,71.22A2.16,2.16,0,0,0,69,69.06H61.45a2.16,2.16,0,0,0-2.15,2.16v7.52a2.16,2.16,0,0,0,2.15,2.16H69a2.16,2.16,0,0,0,2.15-2.16V71.22Z"/><path class="cls-1" d="M84.63,10.58V22.07a9.38,9.38,0,0,1-9.35,9.43h-6a9.44,9.44,0,0,1-9.47-9.38V10.5H33.08V22.07a9.44,9.44,0,0,1-9.45,9.43H17.68a9.38,9.38,0,0,1-9.41-9.37h0V10.58A8.55,8.55,0,0,0,0,19.09V86.43A8.55,8.55,0,0,0,8.52,95H84.38a8.58,8.58,0,0,0,8.52-8.57V19.09A8.55,8.55,0,0,0,84.63,10.58ZM81.87,82.24a3.68,3.68,0,0,1-3.68,3.68H14.55a3.68,3.68,0,0,1-3.68-3.68h0V47.5a3.68,3.68,0,0,1,3.68-3.68H78.19a3.68,3.68,0,0,1,3.68,3.68h0Z"/><path class="cls-1" d="M17.66,25.29h5.87a3.22,3.22,0,0,0,3.22-3.22h0V3.23A3.22,3.22,0,0,0,23.54,0H17.66a3.22,3.22,0,0,0-3.21,3.23V22.06A3.22,3.22,0,0,0,17.66,25.29Z"/><path class="cls-1" d="M69.21,25.29h5.87a3.23,3.23,0,0,0,3.23-3.23h0V3.23A3.23,3.23,0,0,0,75.08,0H69.21A3.22,3.22,0,0,0,66,3.22h0V22.06a3.22,3.22,0,0,0,3.21,3.23Z"/></g></g></svg>